<?xml version="1.0" standalone="no"?>
<!DOCTYPE svg PUBLIC "-//W3C//DTD SVG 20010904//EN"
 "http://www.w3.org/TR/2001/REC-SVG-20010904/DTD/svg10.dtd">
<svg version="1.0" xmlns="http://www.w3.org/2000/svg"
 width="180.000000pt" height="180.000000pt" viewBox="0 0 180.000000 180.000000"
 preserveAspectRatio="xMidYMid meet">
<metadata>
Created by potrace 1.11, written by Peter Selinger 2001-2013
</metadata>
<g transform="translate(0.000000,180.000000) scale(0.100000,-0.100000)"
fill="#000000" stroke="none">
<path d="M1505 1460 c3 -5 8 -10 11 -10 2 0 4 5 4 10 0 6 -5 10 -11 10 -5 0
-7 -4 -4 -10z"/>
<path d="M1605 1335 c-6 -8 -32 -17 -60 -20 -98 -11 -130 -18 -157 -31 -15 -8
-37 -14 -48 -14 -27 0 -95 -40 -140 -82 -37 -35 -90 -108 -90 -124 0 -5 -7
-22 -16 -39 -10 -18 -18 -61 -20 -105 -3 -74 -4 -77 -48 -122 -24 -26 -50 -63
-57 -82 -13 -35 -40 -48 -54 -26 -3 6 3 10 14 10 28 0 27 5 -9 50 -29 37 -42
66 -18 42 16 -16 28 -15 28 4 0 21 -53 126 -84 167 -14 18 -37 39 -51 47 -37
20 -23 24 20 6 46 -19 45 -19 45 -1 0 26 -68 83 -127 105 -61 23 -167 31 -235
17 -28 -6 -38 -5 -38 4 0 15 -49 69 -62 69 -5 0 -6 -11 -3 -23 8 -31 -29 -75
-104 -126 -31 -22 -66 -49 -78 -63 -27 -29 -53 -89 -53 -123 0 -21 -8 -30 -45
-46 -25 -11 -45 -26 -45 -34 0 -8 16 -26 35 -41 19 -14 35 -34 35 -43 1 -20
24 -51 39 -51 26 0 8 -23 -34 -41 -25 -11 -45 -26 -45 -34 0 -8 16 -26 35 -41
19 -14 35 -32 35 -39 0 -8 7 -26 14 -42 8 -15 21 -49 29 -75 13 -44 13 -48 -4
-53 -10 -4 -27 -16 -36 -29 -10 -13 -28 -28 -41 -35 -44 -23 -19 -81 35 -81
10 0 24 -9 31 -21 34 -54 158 -63 415 -28 l158 22 85 -22 c100 -25 226 -28
297 -6 27 8 108 19 180 25 282 23 308 27 336 47 14 11 27 28 29 37 4 20 -50
76 -75 76 -10 0 -24 9 -31 20 -13 21 -121 79 -187 100 -53 17 -125 67 -125 87
0 25 50 61 125 89 133 51 190 76 222 100 35 27 77 88 71 106 -2 6 4 20 14 30
10 10 18 25 18 33 0 8 4 15 9 15 13 0 41 87 41 127 0 24 -5 33 -16 33 -12 0
-15 6 -11 22 13 47 -75 180 -95 145 -4 -8 -6 -30 -4 -51 2 -20 0 -39 -5 -42
-5 -3 -9 43 -9 105 0 82 -3 111 -13 111 -6 0 -17 -7 -22 -15z m-492 -687 c2
-7 -9 -21 -24 -30 -33 -20 -87 -91 -95 -125 -7 -27 -44 -32 -64 -8 -11 13 -8
14 19 9 38 -8 39 -2 3 45 -41 51 -50 70 -25 49 11 -10 23 -18 26 -18 12 0 8
30 -8 60 l-16 30 90 0 c63 0 91 -4 94 -12z"/>
</g>
</svg>
